<?xml version="1.0" encoding="iso-8859-1"?>
<!-- Generator: Adobe Illustrator 16.0.0, SVG Export Plug-In . SVG Version: 6.00 Build 0)  -->
<!DOCTYPE svg PUBLIC "-//W3C//DTD SVG 1.1//EN" "http://www.w3.org/Graphics/SVG/1.1/DTD/svg11.dtd">
<svg version="1.1" id="Capa_1" xmlns="http://www.w3.org/2000/svg" xmlns:xlink="http://www.w3.org/1999/xlink" x="0px" y="0px"
	 width="91.111px" height="91.111px" viewBox="0 0 91.111 91.111" style="enable-background:new 0 0 91.111 91.111;"
	 xml:space="preserve">
<g>
	<path d="M73.255,0H17.858C8.035,0,0,8.035,0,17.85v55.412c0,9.814,8.035,17.85,17.858,17.85h55.396
		c9.821,0,17.856-8.035,17.856-17.85V17.85C91.111,8.035,83.076,0,73.255,0z M69.888,52.927c4.989,4.627,6.026,6.879,6.194,7.159
		c2.066,3.433-2.286,3.703-2.286,3.703l-8.33,0.109c0,0-1.793,0.359-4.147-1.26c-3.114-2.128-6.051-7.686-8.34-6.967
		c-2.32,0.739-2.248,5.742-2.248,5.742s0.014,0.712-0.514,1.287c-0.571,0.602-1.695,0.376-1.695,0.376H44.8
		c0,0-8.226,0.845-15.468-6.693c-7.898-8.224-14.873-24.37-14.873-24.37s-0.399-0.98,0.036-1.499
		c0.493-0.582,1.829-0.575,1.829-0.575l8.908-0.034c0,0,0.837,0.15,1.439,0.592c0.498,0.364,0.775,1.051,0.775,1.051
		s1.441,3.645,3.347,6.938c3.721,6.43,5.457,7.839,6.717,7.15c1.843-1.008,1.289-9.091,1.289-9.091s0.036-2.938-0.927-4.245
		c-0.743-1.011-2.146-1.311-2.765-1.391c-0.505-0.067,0.318-1.23,1.388-1.752c1.605-0.783,4.437-0.826,7.782-0.795
		c2.604,0.026,3.357,0.19,4.374,0.435c3.073,0.741,2.029,3.607,2.029,10.475c0,2.201-0.394,5.294,1.191,6.321
		c0.685,0.441,2.357,0.068,6.525-7.022c1.979-3.361,3.457-7.31,3.457-7.31s0.332-0.705,0.828-1.006
		c0.517-0.308,1.211-0.212,1.211-0.212l9.384-0.06c0,0,2.816-0.337,3.271,0.936c0.486,1.335-1.054,4.449-4.883,9.555
		C65.363,48.861,64.669,48.081,69.888,52.927z"/>
</g>
<g>
</g>
<g>
</g>
<g>
</g>
<g>
</g>
<g>
</g>
<g>
</g>
<g>
</g>
<g>
</g>
<g>
</g>
<g>
</g>
<g>
</g>
<g>
</g>
<g>
</g>
<g>
</g>
<g>
</g>
</svg>
